<svg width="1392" height="828" viewBox="0 0 1392 828" fill="none" xmlns="http://www.w3.org/2000/svg">
<path d="M1391.99 788.674V563.895L1311.1 553.6L1391.99 544.673V291.666L1311.1 281.371L1391.99 272.444V10.4892H32.7608L0.00872803 43.0576V272.444L80.9027 281.371L0.00872803 291.666V544.673L80.9027 553.6L0.00872803 563.895V827.088H1353.37L1391.99 788.674Z" fill="#343A48"/>
<path d="M1391.99 779.097V554.318L1311.1 544.023L1391.99 535.096V282.088L1311.1 271.794L1391.99 262.866V0.911896H32.7608L0.00872803 33.4803V262.866L80.9027 271.794L0.00872803 282.088V535.096L80.9027 544.023L0.00872803 554.318V817.511H1353.37L1391.99 779.097Z" fill="#F5EBDA"/>
</svg>
