<svg width="30" height="29" viewBox="0 0 30 29" fill="none" xmlns="http://www.w3.org/2000/svg">
<path d="M19.7515 6.58496H3.79658C2.95012 6.58496 2.13866 6.92125 1.54007 7.51957C0.941757 8.11815 0.605469 8.92989 0.605469 9.77608V25.731C0.605469 26.5774 0.941757 27.3889 1.54007 27.9875C2.13866 28.5858 2.95012 28.9221 3.79658 28.9221H19.7515C20.5977 28.9221 21.4094 28.5858 22.008 27.9875C22.6063 27.3889 22.9426 26.5774 22.9426 25.731V9.77608C22.9426 8.92989 22.6063 8.11816 22.008 7.51957C21.4094 6.92125 20.5977 6.58496 19.7515 6.58496Z" fill="#746B5F"/>
<path d="M26.1343 3.39435V22.5405C26.9808 22.5405 27.7922 22.2042 28.3908 21.6059C28.9891 21.0073 29.3254 20.1956 29.3254 19.3494V3.39448C29.3254 2.54802 28.9891 1.73657 28.3908 1.13797C27.7922 0.539657 26.9808 0.203369 26.1343 0.203369H10.1794C9.33321 0.203369 8.52148 0.539657 7.92289 1.13797C7.32457 1.73656 6.98828 2.54802 6.98828 3.39448L26.1343 3.39435Z" fill="#746B5F"/>
</svg>
