<svg width="24" height="32" viewBox="0 0 24 32" fill="none"
  xmlns="http://www.w3.org/2000/svg">
  <path fill-rule="evenodd" clip-rule="evenodd" d="M10.7103 19.7339V2.09661C10.7103 1.3797 11.2941 0.798462 12.0139 0.798462C12.7338 0.798462 13.3175 1.3797 13.3175 2.09661V19.9912L17.7407 15.5863C18.2498 15.0794 19.0752 15.0794 19.5842 15.5863C20.0933 16.0933 20.0933 16.9153 19.5842 17.4222L13.0649 23.9145C12.5556 24.4214 11.7305 24.4214 11.2212 23.9145L4.57416 17.2945C4.06512 16.7875 4.06512 15.9658 4.57416 15.4588C5.08321 14.9518 5.90887 14.9518 6.41789 15.4588L10.7103 19.7339ZM1.62823 29.354C9.74152 28.8742 14.2881 29.0912 22.3998 29.354C23.117 29.354 23.698 29.9375 23.698 30.6576C23.698 31.3775 23.117 31.9612 22.3998 31.9612H1.62823C0.911318 31.9612 0.330078 31.3775 0.330078 30.6576C0.330078 29.9375 0.911318 29.354 1.62823 29.354Z" fill="#FFFFFF"/>
</svg>
