<svg width="29" height="27" viewBox="0 0 29 27" fill="none" xmlns="http://www.w3.org/2000/svg">
<path d="M8.75835 0.264336C6.77819 0.264336 4.79328 1.05817 3.32527 2.64992C0.389459 5.8334 0.393698 10.8524 3.32527 14.0371L13.7501 25.3641C14.0538 25.6926 14.4809 25.8792 14.9279 25.8792C15.3752 25.8792 15.8024 25.6926 16.1057 25.3641C19.5823 21.594 23.0537 17.8273 26.5306 14.0571C29.4664 10.8737 29.4662 5.84325 26.5306 2.65965C23.5948 -0.523831 18.6105 -0.523831 15.675 2.65965L14.9333 3.46157L14.1815 2.64957C12.7137 1.05783 10.7387 0.263992 8.75846 0.263992L8.75835 0.264336ZM8.75835 3.38183C9.85021 3.38183 10.9394 3.86424 11.8257 4.82522L13.7602 6.92017C14.0639 7.24863 14.4908 7.43524 14.938 7.43524C15.3853 7.43524 15.8122 7.24863 16.1158 6.92017L18.0405 4.8353C19.813 2.91306 22.4027 2.91329 24.1751 4.8353C25.9477 6.75732 25.9477 9.96028 24.1751 11.8818C21.093 15.2242 18.0153 18.5635 14.9331 21.9058L5.69103 11.8715C3.91891 9.94619 3.91874 6.74655 5.69103 4.82499C6.57731 3.86401 7.66626 3.38161 8.75841 3.38161L8.75835 3.38183Z" fill="#746B5F" stroke="#FFF8ED" stroke-width="0.5"/>
</svg>
