<svg width="55" height="45" viewBox="0 0 55 45" fill="none" xmlns="http://www.w3.org/2000/svg">
<path d="M35.7137 0.0892029C35.0575 0.0892029 34.3982 0.340426 33.8948 0.844295L25.5101 9.23322L14.68 20.0633L34.5256 39.9089L36.27 38.1603L45.3557 29.0741L53.7404 20.6894C54.7467 19.6826 54.7467 18.0669 53.7404 17.0601L37.528 0.844054C37.0246 0.340655 36.3694 0.0894321 35.7133 0.0894321L35.7137 0.0892029ZM13.1627 21.898C11.564 24.5569 11.8958 28.0383 14.1936 30.3365L24.2525 40.3955C24.9341 41.0765 25.7254 41.5644 26.5621 41.901H2.55337C1.66724 41.901 0.953125 42.1121 0.953125 42.3709V43.8971C0.953125 44.1568 1.66721 44.367 2.55337 44.367H38.6708C39.5569 44.367 40.271 44.1558 40.271 43.8971V42.3709C40.271 42.1112 39.5569 41.901 38.6708 41.901H31.7212C32.0517 41.7657 32.3755 41.6135 32.6861 41.4263L13.1627 21.898Z" fill="#746B5F"/>
</svg>