<svg width="23" height="27" viewBox="0 0 23 27" fill="none" xmlns="http://www.w3.org/2000/svg">
<circle cx="11.5405" cy="13.7684" r="10.9487" fill="#746B5F"/>
<path d="M9.80957 16.7606V16.954H12.1299V16.7606C12.1387 15.5302 12.5781 14.9589 13.5713 14.37C14.7227 13.6757 15.4697 12.7616 15.4697 11.3114C15.4697 9.1405 13.7383 7.86609 11.2861 7.86609C9.03613 7.86609 7.19922 9.05261 7.15527 11.5223H9.65137C9.68652 10.494 10.4512 9.9491 11.2686 9.94031C12.1211 9.9491 12.8066 10.5204 12.7979 11.3993C12.8066 12.2079 12.2178 12.7528 11.4619 13.245C10.4072 13.9042 9.81836 14.5721 9.80957 16.7606ZM9.5459 19.4501C9.52832 20.2675 10.1963 20.9266 11.0225 20.9266C11.8047 20.9266 12.4814 20.2675 12.4814 19.4501C12.4814 18.6415 11.8047 17.9823 11.0225 17.9911C10.1963 17.9823 9.52832 18.6415 9.5459 19.4501Z" fill="white"/>
</svg>