<svg width="57" height="56" viewBox="0 0 57 56" fill="none" xmlns="http://www.w3.org/2000/svg">
<g clip-path="url(#clip0_420_2)">
<path d="M0.5 28C0.5 12.536 13.036 0 28.5 0C43.964 0 56.5 12.536 56.5 28C56.5 43.464 43.964 56 28.5 56C13.036 56 0.5 43.464 0.5 28Z" fill="#FEE500"/>
<path fill-rule="evenodd" clip-rule="evenodd" d="M28.5 16.2063C21.5606 16.2063 15.9286 20.5812 15.9286 25.9617C15.9286 29.3183 18.1034 32.2474 21.4223 34.0326L20.0269 39.1492C20.0005 39.2509 20.006 39.3583 20.0424 39.4569C20.0788 39.5555 20.1446 39.6406 20.2307 39.7008C20.3169 39.761 20.4195 39.7934 20.5246 39.7937C20.6297 39.7939 20.7324 39.7621 20.8189 39.7023L26.9286 35.6417C27.444 35.6417 27.972 35.7297 28.5 35.7297C35.4394 35.7297 41.0714 31.3549 41.0714 25.9617C41.0714 20.5686 35.4394 16.2063 28.5 16.2063Z" fill="#181600"/>
</g>
<defs>
<clipPath id="clip0_420_2">
<rect width="57" height="56" fill="white"/>
</clipPath>
</defs>
</svg>
