<svg width="28" height="27" viewBox="0 0 28 27" fill="none" xmlns="http://www.w3.org/2000/svg">
<path fill-rule="evenodd" clip-rule="evenodd" d="M2.82715 8.92695C2.82715 10.5719 3.58379 12.0401 4.76803 13.0026C4.63629 13.2733 4.56699 13.554 4.56699 13.8418C4.56699 15.3213 6.39867 16.6148 9.13014 17.3173C8.86173 17.7976 8.71341 18.3251 8.71341 18.8786C8.71341 21.1074 11.1179 22.9142 14.084 22.9142C17.0502 22.9142 19.4547 21.1074 19.4547 18.8786C19.4547 18.2828 19.2828 17.7171 18.9743 17.208C21.4824 16.4855 23.1363 15.2476 23.1363 13.8418C23.1363 13.605 23.0894 13.373 22.9994 13.1475C24.6782 12.1912 25.7664 10.6568 25.7664 8.92695C25.7664 6.02792 22.7099 3.6778 18.9395 3.6778C16.2397 3.6778 13.9059 4.88278 12.7983 6.63144C11.9466 4.88278 10.1522 3.6778 8.07631 3.6778C5.17728 3.6778 2.82715 6.02792 2.82715 8.92695Z" fill="#FF3D00"/>
<path d="M7.6812 0.746102C5.70105 0.746102 3.71614 1.53994 2.24812 3.13168C-0.68769 6.31517 -0.683451 11.3341 2.24812 14.5189L12.673 25.8459C12.9766 26.1744 13.4038 26.361 13.8508 26.361C14.2981 26.361 14.7252 26.1744 15.0286 25.8459C18.5051 22.0758 21.9766 18.3091 25.4534 14.5389C28.3893 11.3554 28.389 6.32502 25.4534 3.14142C22.5176 -0.0420654 17.5334 -0.0420654 14.5978 3.14142L13.8561 3.94333L13.1043 3.13134C11.6365 1.5396 9.66153 0.745758 7.68131 0.745758L7.6812 0.746102ZM7.6812 3.8636C8.77306 3.8636 9.86229 4.346 10.7486 5.30699L12.6831 7.40193C12.9867 7.7304 13.4136 7.917 13.8609 7.917C14.3081 7.917 14.7351 7.7304 15.0386 7.40193L16.9634 5.31707C18.7359 3.39482 21.3255 3.39505 23.098 5.31707C24.8705 7.23909 24.8705 10.442 23.098 12.3636C20.0158 15.706 16.9382 19.0453 13.8559 22.3875L4.61388 12.3533C2.84176 10.428 2.84159 7.22832 4.61388 5.30676C5.50017 4.34578 6.58911 3.86337 7.68126 3.86337L7.6812 3.8636Z" fill="#746B5F"/>
</svg>
