<svg width="53" height="61" viewBox="0 0 53 61" fill="none" xmlns="http://www.w3.org/2000/svg">
<path d="M26.152 35.3896C22.4882 35.3896 19.5439 38.3338 19.5439 41.9977C19.5439 45.6615 22.4881 48.6057 26.152 48.6057C29.8159 48.6057 32.76 45.6616 32.76 41.9977C32.76 38.3343 29.8159 35.3896 26.152 35.3896ZM26.152 44.5497C24.7126 44.5497 23.6003 43.3723 23.6003 41.998C23.6003 40.5586 24.7778 39.4464 26.152 39.4464C27.5914 39.4464 28.7037 40.6238 28.7037 41.998C28.7037 43.3718 27.5914 44.5497 26.152 44.5497Z" fill="#746B5F"/>
<path d="M44.6017 24.0019H42.4426V16.5443C42.4426 7.58091 35.1148 0.25293 26.1512 0.25293C17.1877 0.25293 9.85977 7.58067 9.85977 16.5443V23.9362H7.70067C3.51332 23.9362 0.176758 27.3386 0.176758 31.4602V53.3783C0.176758 57.5657 3.5791 60.9022 7.70067 60.9022H44.6017C48.789 60.9022 52.1256 57.4999 52.1256 53.3783L52.1261 31.5256C52.1261 27.3382 48.7889 24.0019 44.6017 24.0019ZM13.8508 16.5443C13.8508 9.80532 19.3466 4.244 26.1512 4.244C32.9554 4.244 38.4515 9.73978 38.4515 16.5443V23.9362L13.8508 23.9367V16.5443ZM48.1348 53.4441C48.1348 55.407 46.5644 56.9769 44.6019 56.9769L7.63547 56.9774C5.67254 56.9774 4.10263 55.407 4.10263 53.4445V31.5252C4.10263 29.5623 5.673 27.9924 7.63547 27.9924H44.5365C46.4994 27.9924 48.0693 29.5628 48.0693 31.5252L48.0698 53.4434L48.1348 53.4441Z" fill="#746B5F"/>
</svg>
