<svg width="30" height="28" viewBox="0 0 30 28" fill="none" xmlns="http://www.w3.org/2000/svg">
<path d="M3.99728 27.0487H14.1398C16.0973 27.0487 17.6996 25.4766 17.6996 23.5191V20.8285C17.6996 20.1181 17.1252 19.5437 16.4147 19.5437C15.7043 19.5437 15.1299 20.1181 15.1299 20.8285V23.5191C15.1299 24.0633 14.684 24.479 14.1398 24.479H3.99728C3.45311 24.479 3.03741 24.0633 3.03741 23.5191V3.97482C3.03741 3.43065 3.45309 3.01495 3.99728 3.01495H14.1398C14.684 3.01495 15.1299 3.43063 15.1299 3.97482V6.61252C15.1299 7.32294 15.7043 7.89737 16.4147 7.89737C17.1252 7.89737 17.6996 7.32297 17.6996 6.61252V3.97482C17.6996 2.01734 16.0973 0.445312 14.1398 0.445312H3.99728C2.03981 0.445312 0.467773 2.01734 0.467773 3.97482V23.5191C0.467773 25.4766 2.03981 27.0487 3.99728 27.0487Z" fill="#746B5F"/>
<path d="M22.4083 20.4357C22.6501 20.6474 22.9524 20.7532 23.2472 20.7532C23.61 20.7532 23.9652 20.602 24.2146 20.3073L29.0819 14.6994C29.3389 14.4651 29.5051 14.125 29.5051 13.7471C29.5051 13.339 29.3162 12.9762 29.0139 12.7419L24.1466 7.8746C23.6478 7.37578 22.8315 7.37578 22.3327 7.8746C21.8339 8.37343 21.8339 9.18965 22.3327 9.68849L25.1065 12.4622H8.50165C7.79123 12.4622 7.2168 13.0366 7.2168 13.7471C7.2168 14.4575 7.79119 15.0319 8.50165 15.0319H25.3932L22.2794 18.6219C21.8108 19.1585 21.8713 19.9748 22.4079 20.4358L22.4083 20.4357Z" fill="#746B5F"/>
</svg>
