<svg width="26" height="23" viewBox="0 0 26 23" fill="none" xmlns="http://www.w3.org/2000/svg">
<path d="M3.95758 22.9383H12.5296C14.1839 22.9383 15.5381 21.6097 15.5381 19.9554V17.6814C15.5381 17.081 15.0527 16.5955 14.4522 16.5955C13.8518 16.5955 13.3663 17.0809 13.3663 17.6814V19.9554C13.3663 20.4153 12.9895 20.7666 12.5296 20.7666H3.95758C3.49767 20.7666 3.14634 20.4153 3.14634 19.9554V3.43743C3.14634 2.97753 3.49765 2.6262 3.95758 2.6262H12.5296C12.9895 2.6262 13.3663 2.97751 13.3663 3.43743V5.66669C13.3663 6.2671 13.8518 6.75258 14.4522 6.75258C15.0527 6.75258 15.5381 6.26713 15.5381 5.66669V3.43743C15.5381 1.78307 14.1839 0.454468 12.5296 0.454468H3.95758C2.30322 0.454468 0.974609 1.78307 0.974609 3.43743V19.9554C0.974609 21.6097 2.30322 22.9383 3.95758 22.9383Z" fill="#FFF8ED"/>
<path d="M19.5178 17.3494C19.7222 17.5283 19.9777 17.6177 20.2268 17.6177C20.5334 17.6177 20.8337 17.49 21.0444 17.2408L25.158 12.5013C25.3752 12.3033 25.5157 12.0159 25.5157 11.6965C25.5157 11.3516 25.356 11.045 25.1005 10.847L20.9869 6.73336C20.5654 6.31178 19.8755 6.31178 19.4539 6.73336C19.0323 7.15494 19.0324 7.84478 19.4539 8.26637L21.7982 10.6106H7.76461C7.16419 10.6106 6.67871 11.0961 6.67871 11.6965C6.67871 12.2969 7.16416 12.7824 7.76461 12.7824H22.0405L19.4089 15.8165C19.0129 16.27 19.0643 16.9598 19.5178 17.3494Z" fill="#FFF8ED"/>
</svg>
