<svg width="45" height="48" viewBox="0 0 45 48" fill="none" xmlns="http://www.w3.org/2000/svg">
<path d="M43.0122 4.53809L1.39893 46.1516" stroke="#746B5F" stroke-width="2" stroke-linecap="round"/>
<path d="M22.6802 32.2826C25.2169 32.2789 27.6482 31.2698 29.4418 29.4762C31.2353 27.6827 32.2448 25.2509 32.2481 22.7146V9.89263C32.2481 6.47451 30.4245 3.31595 27.4642 1.6065C24.5039 -0.102558 20.8566 -0.102558 17.8967 1.6065C14.9364 3.31595 13.1128 6.47451 13.1128 9.89263V22.7146C13.1161 25.2509 14.1256 27.6827 15.9191 29.4762C17.7127 31.2698 20.144 32.2789 22.6807 32.2826H22.6802Z" fill="#746B5F"/>
<path d="M38.6597 22.9025C38.6683 22.5827 38.547 22.2732 38.3239 22.0441C38.1007 21.815 37.7942 21.6855 37.4743 21.6855C37.1545 21.6855 36.8484 21.815 36.6252 22.0441C36.402 22.2732 36.2808 22.5827 36.2893 22.9025C36.1975 27.7021 33.5838 32.0981 29.4114 34.4715C25.2386 36.8453 20.1243 36.8453 15.9514 34.4715C11.779 32.0977 9.16525 27.7017 9.07346 22.9025C9.08201 22.5827 8.96076 22.2732 8.7376 22.0441C8.51443 21.815 8.20832 21.6855 7.88845 21.6855C7.56857 21.6855 7.26209 21.815 7.03892 22.0441C6.81575 22.2732 6.6945 22.5827 6.70306 22.9025C6.73802 26.898 8.28196 30.7327 11.0258 33.6374C13.7692 36.5423 17.5095 38.3027 21.4968 38.5657V43.781H14.8223C14.1799 43.7981 13.6681 44.3237 13.6681 44.9664C13.6681 45.6087 14.1799 46.1343 14.8223 46.1514H30.5408C31.1831 46.1343 31.6949 45.6087 31.6949 44.9664C31.6949 44.3237 31.1831 43.7981 30.5408 43.781H23.8662V38.5657C27.8535 38.3027 31.5937 36.5423 34.3373 33.6374C37.0811 30.7325 38.6251 26.8978 38.66 22.9025H38.6597Z" fill="#746B5F"/>
</svg>
