<svg width="33" height="47" viewBox="0 0 33 47" fill="none" xmlns="http://www.w3.org/2000/svg">
<path d="M16.1309 32.2821C18.6675 32.2784 21.0989 31.2693 22.8924 29.4757C24.686 27.6822 25.6955 25.2505 25.6988 22.7141V9.89214C25.6988 6.47402 23.8752 3.31546 20.9149 1.60601C17.9546 -0.103047 14.3072 -0.103047 11.3474 1.60601C8.38709 3.31546 6.56348 6.47402 6.56348 9.89214V22.7141C6.56682 25.2505 7.57631 27.6822 9.36983 29.4757C11.1633 31.2693 13.5947 32.2784 16.1314 32.2821H16.1309Z" fill="#746B5F"/>
<path d="M32.1085 22.9025C32.117 22.5827 31.9958 22.2732 31.7726 22.0441C31.5494 21.815 31.2429 21.6855 30.9231 21.6855C30.6032 21.6855 30.2971 21.815 30.0739 22.0441C29.8507 22.2732 29.7295 22.5827 29.7381 22.9025C29.6462 27.7021 27.0325 32.0981 22.8601 34.4715C18.6873 36.8453 13.5731 36.8453 9.40014 34.4715C5.2277 32.0977 2.61398 27.7017 2.52219 22.9025C2.53074 22.5827 2.40949 22.2732 2.18633 22.0441C1.96316 21.815 1.65705 21.6855 1.33718 21.6855C1.0173 21.6855 0.710825 21.815 0.487654 22.0441C0.264483 22.2732 0.143231 22.5827 0.151792 22.9025C0.186755 26.898 1.73069 30.7327 4.47448 33.6374C7.21789 36.5423 10.9582 38.3027 14.9456 38.5657V43.781H8.271C7.62865 43.7981 7.11687 44.3237 7.11687 44.9664C7.11687 45.6087 7.62866 46.1343 8.271 46.1514H23.9895C24.6319 46.1343 25.1437 45.6087 25.1437 44.9664C25.1437 44.3237 24.6319 43.7981 23.9895 43.781H17.315V38.5657C21.3022 38.3027 25.0424 36.5423 27.7861 33.6374C30.5298 30.7325 32.0735 26.8978 32.1085 22.9025Z" fill="#746B5F"/>
</svg>
