<svg width="32" height="26" viewBox="0 0 32 26" fill="none" xmlns="http://www.w3.org/2000/svg">
<path d="M6.90806 25.3701V17.7615H11.202L25.1385 24.7297L25.4775 24.8051L25.4777 24.8049C25.6774 24.8049 25.8689 24.7255 26.0103 24.5844C26.1516 24.4431 26.231 24.2516 26.231 24.0516V17.9122L28.2273 17.159V17.1587C29.0775 16.8269 29.8087 16.2472 30.3258 15.4951C30.8428 14.7431 31.1221 13.8529 31.1277 12.9402V11.9986C31.1221 11.0858 30.8429 10.1956 30.3258 9.44371C29.8087 8.69146 29.0775 8.11187 28.2273 7.78007L26.231 7.02682V1.26362C26.2328 1.0014 26.098 0.75679 25.875 0.618326C25.6519 0.480125 25.3729 0.467513 25.1385 0.585746L11.202 7.554H5.3637C4.1651 7.554 3.01534 8.03008 2.16772 8.8777C1.32009 9.72532 0.84375 10.875 0.84375 12.0739V13.2415C0.84375 14.4401 1.32009 15.5899 2.16772 16.4375C3.01534 17.2853 4.16504 17.7615 5.3637 17.7615V25.3701L6.90806 25.3701ZM27.6998 9.21125C28.2684 9.43248 28.7563 9.8208 29.0995 10.3252C29.4423 10.8297 29.6241 11.4264 29.6207 12.0362V12.9403C29.6241 13.5504 29.4423 14.1468 29.0995 14.6513C28.7563 15.1557 28.2684 15.544 27.6998 15.7652L26.2308 16.3301V8.64622L27.6998 9.21125ZM12.1437 8.75934L24.7242 2.50668V22.8464L12.1437 16.5564V8.75934ZM2.35045 13.2417V12.0741C2.35045 11.2748 2.66784 10.5085 3.23299 9.94327C3.79813 9.37807 4.56455 9.06073 5.36355 9.06073H10.637V16.255H5.36355C4.56455 16.255 3.79818 15.9373 3.23299 15.3724C2.66784 14.8073 2.35045 14.0409 2.35045 13.2416V13.2417Z" fill="#746B5F" stroke="#746B5F" stroke-width="0.8"/>
</svg>
