<svg width="52" height="50" viewBox="0 0 52 50" fill="none" xmlns="http://www.w3.org/2000/svg">
<path d="M0.484241 41.9719C-0.0241451 43.9495 2.23556 45.644 4.38266 45.644C6.52976 45.644 8.78946 43.949 8.28108 41.9719C7.7727 39.9943 4.77835 34.7966 4.38266 34.7966C3.98738 34.8534 0.99302 40.0511 0.484241 41.9719Z" fill="#746B5F"/>
<path d="M7.26408 27.7345L22.8574 12.1412V18.5819C22.8574 21.4068 25.0608 23.9491 27.8856 24.0059C30.8236 24.119 33.2528 21.7462 33.2528 18.8081V9.88155L49.2416 25.8138C51.9533 28.5256 51.9533 32.876 49.2416 35.5878L37.0381 47.7912C34.3263 50.503 29.9759 50.503 27.2642 47.7912L13.6483 34.1753C13.1399 33.6669 12.5747 33.328 11.897 33.1586L4.89119 31.3505C4.43916 31.2374 4.32605 30.6726 4.60862 30.3901L7.26408 27.7345Z" fill="#746B5F"/>
<path d="M28.0558 21.3503C29.4118 21.3503 30.485 20.2768 30.485 18.9211L30.4854 2.5369C30.4854 1.18086 29.4118 0.107708 28.0562 0.107708C26.7001 0.107708 25.627 1.18126 25.627 2.5369V18.9776C25.6266 20.277 26.6997 21.3505 28.0558 21.3505L28.0558 21.3503Z" fill="#746B5F"/>
</svg>