<svg width="48" height="48" viewBox="0 0 48 48" fill="none" xmlns="http://www.w3.org/2000/svg">
<path fill-rule="evenodd" clip-rule="evenodd" d="M0.36873 44.8151C0.088558 45.5063 0.248124 46.2976 0.775312 46.8238C1.30458 47.352 2.09744 47.5113 2.78795 47.2296L16.0719 41.8353C16.6476 41.602 17.0691 41.0957 17.1914 40.4864C17.3157 39.8788 17.1246 39.2485 16.6845 38.8095L8.80813 30.9466C8.36798 30.5073 7.73672 30.3182 7.12589 30.4407C6.51705 30.5648 6.01012 30.9838 5.77436 31.558L0.36873 44.8151Z" fill="#746B5F"/>
<path fill-rule="evenodd" clip-rule="evenodd" d="M31.1285 6.09469L8.73047 28.3968C9.28916 28.6636 9.80719 29.0268 10.2585 29.4772L18.137 37.3402C18.5921 37.7943 18.9597 38.3184 19.2287 38.8856L41.6331 16.5782L31.1285 6.09469ZM32.5136 4.50598L43.0172 14.9889L45.6391 12.5896C46.6844 11.5464 47.2728 10.1326 47.275 8.6555C47.275 7.18041 46.6881 5.76452 45.6428 4.72137L43.0172 2.10095C40.843 -0.0674188 37.3205 -0.071125 35.1446 2.09722L32.5131 4.50565L32.5136 4.50598Z" fill="#746B5F"/>
</svg>