<svg width="45" height="53" viewBox="0 0 45 53" fill="none" xmlns="http://www.w3.org/2000/svg">
<path d="M0.801195 21.2589L7.13772 14.9236C7.56823 14.4943 8.26414 14.4943 8.69379 14.9236C8.91626 15.1453 9.02208 15.4379 9.01406 15.7277V18.7388H16.8453C17.3155 18.7388 17.6963 19.1205 17.6963 19.5898V25.2638C17.6963 25.7332 17.3155 26.1144 16.8453 26.1144H9.01447L9.01568 29.1483C9.01568 29.4305 8.90745 29.7119 8.6926 29.9288C8.2629 30.3585 7.56701 30.3585 7.13654 29.9288L0.801239 23.5926C0.490191 23.2824 0.318624 22.8667 0.318624 22.4254C0.319025 21.9849 0.490147 21.5703 0.801195 21.2589Z" fill="#746B5F"/>
<path d="M15.1461 41.2331C15.1461 41.3698 15.2572 41.4832 15.3951 41.4832H22.5975V9.41477C22.5975 8.72531 23.1194 7.96614 23.7635 7.71801L35.0666 3.3709H15.3952C15.2589 3.3709 15.1462 3.48314 15.1462 3.62022V14.9182H12.0942V1.79366C12.0958 0.979149 12.7544 0.31897 13.5698 0.31897H43.2052C43.2609 0.322577 43.297 0.327788 43.3347 0.330995C43.3708 0.335405 43.4076 0.33781 43.4433 0.346628C43.4682 0.35224 43.4922 0.36226 43.5171 0.369075C43.5612 0.381902 43.6057 0.394328 43.6473 0.412767C43.665 0.420784 43.6818 0.431606 43.6978 0.440425C43.7439 0.464075 43.7888 0.486922 43.8301 0.514981C43.8498 0.52821 43.8662 0.545045 43.8854 0.560277C43.9215 0.588336 43.9584 0.617597 43.9913 0.648863C44.0097 0.668905 44.0245 0.690952 44.0418 0.712197C44.0706 0.74667 44.1003 0.779538 44.1251 0.817214C44.1388 0.838057 44.1488 0.859303 44.1608 0.88175C44.1849 0.923839 44.2089 0.966328 44.227 1.01202C44.2418 1.04689 44.2454 1.07175 44.2522 1.09379C44.265 1.13588 44.2787 1.17717 44.2863 1.21926C44.2943 1.26015 44.2967 1.30023 44.2991 1.34112C44.3015 1.36878 44.3071 1.39243 44.3071 1.42049V43.4345C44.3047 43.4954 44.2983 43.5395 44.2923 43.5828C44.2887 43.6117 44.2879 43.6413 44.2815 43.6702C44.2735 43.7063 44.2602 43.7387 44.2486 43.774C44.2378 43.8097 44.2298 43.8425 44.2153 43.8738C44.2021 43.9047 44.1837 43.9319 44.1676 43.9616C44.15 43.9933 44.1344 44.0277 44.1135 44.0582C44.0935 44.0863 44.0698 44.1123 44.047 44.1392C44.0241 44.1672 44.0033 44.1953 43.978 44.2201C43.9544 44.2438 43.9279 44.2602 43.9027 44.2811C43.8726 44.3059 43.843 44.3328 43.8101 44.354C43.7876 44.3688 43.7628 44.3805 43.7399 44.3913C43.6986 44.4149 43.6582 44.4374 43.6145 44.455C43.604 44.4606 29.082 50.0464 24.1883 51.93C23.3108 52.2679 22.5989 51.7785 22.5989 50.8397L22.5977 44.5336H13.5707C12.7554 44.5336 12.0969 43.8738 12.0969 43.0598V29.9352H15.1465V41.2332L15.1461 41.2331Z" fill="#746B5F"/>
</svg>
