<svg width="44" height="44" viewBox="0 0 44 44" fill="none" xmlns="http://www.w3.org/2000/svg">
<path d="M22.7269 7.24313H25.4363V0.921354C25.4363 0.565436 25.6459 0.243999 25.9692 0.0976124C26.2924 -0.0505619 26.6716 0.0108258 26.9389 0.247598L43.1954 14.6981C43.389 14.8677 43.499 15.1133 43.499 15.3715C43.499 15.6298 43.389 15.8756 43.1954 16.0471L26.9389 30.4976C26.6734 30.7343 26.2924 30.7921 25.9688 30.6476C25.6441 30.5012 25.4363 30.1798 25.4363 29.8238V23.4839L25.1727 23.4894C24.9595 23.4966 24.7463 23.5021 24.5331 23.5021C16.9864 23.5021 9.17998 27.5553 9.17998 34.3397C9.17998 36.8378 10.9375 39.9969 12.5704 41.8757C12.8558 42.2025 12.8667 42.6867 12.5976 43.0281C12.4222 43.25 12.1585 43.3692 11.8894 43.3692C11.7485 43.3692 11.604 43.335 11.4721 43.2664C4.805 39.7819 0.148285 32.7685 0.148285 26.2094C0.148285 15.9299 10.4874 7.24346 22.727 7.24346L22.7269 7.24313Z" fill="#746B5F"/>
</svg>