<svg width="57" height="57" viewBox="0 0 57 57" fill="none" xmlns="http://www.w3.org/2000/svg">
<circle cx="28.5" cy="28.5" r="28.5" fill="#746B5F"/>
<path d="M30.5825 37.1119H23.4307C22.3796 37.1119 21.5273 36.2193 21.5273 35.1185V28.0679L24.2698 28.6211C25.219 28.6211 25.6972 27.4223 25.0272 26.7164L19.4331 20.8578C19.2212 20.6397 18.9503 20.5264 18.6757 20.5264C18.4048 20.5264 18.1347 20.6397 17.9226 20.8578L14.239 24.7155L12.3293 26.7164C11.6592 27.4223 12.1375 28.6211 13.0867 28.6211L15.8292 28.0679V37.4944C15.8292 40.5788 18.217 43.0799 21.1626 43.0799H21.527L30.7015 43.0796C32.3038 43.0796 33.5971 41.6938 33.5491 40.0044C33.5022 38.371 32.1425 37.1119 30.5825 37.1119L30.5825 37.1119Z" fill="white"/>
<path d="M26.4173 19.8873H33.5691C34.6203 19.8873 35.4725 20.7799 35.4725 21.8808V28.9314L32.73 28.3781C31.7808 28.3781 31.3026 29.5769 31.9726 30.2828L37.5667 36.1415C37.7786 36.3595 38.0495 36.4728 38.3241 36.4728C38.595 36.4728 38.8651 36.3595 39.0773 36.1415L44.6714 30.2828C45.3414 29.5769 44.8632 28.3781 43.914 28.3781L41.1714 28.9314L41.1712 19.5056C41.1712 16.4212 38.7834 13.9201 35.8378 13.9201H26.2981C24.6958 13.9201 23.4025 15.3059 23.4505 16.9953C23.4974 18.6281 24.8571 19.8873 26.4171 19.8873H26.4173Z" fill="white"/>
</svg>
