<svg width="99" height="99" viewBox="0 0 99 99" fill="none" xmlns="http://www.w3.org/2000/svg">
<path d="M33.95 30.9663C31.0543 30.9663 28.6475 33.3732 28.6475 36.2689C28.6475 39.1646 31.0543 41.5714 33.95 41.5714C36.8457 41.5714 39.2526 39.1646 39.2526 36.2689C39.2526 33.3732 36.8457 30.9663 33.95 30.9663Z" fill="#4E473F"/>
<path d="M64.6727 30.9663C61.777 30.9663 59.3701 33.3732 59.3701 36.2689C59.3701 39.1646 61.777 41.5714 64.6727 41.5714C67.5684 41.5714 69.9752 39.1646 69.9752 36.2689C69.9752 33.3732 67.5684 30.9663 64.6727 30.9663Z" fill="#4E473F"/>
<path d="M49.3113 0.353516C22.1718 0.353516 0.112305 22.413 0.112305 49.5525C0.112305 76.692 22.1718 98.7515 49.3113 98.7515C76.4508 98.7515 98.5103 76.692 98.5103 49.5525C98.5103 22.413 76.4508 0.353516 49.3113 0.353516ZM49.3113 6.3226C73.2196 6.3226 92.542 25.6439 92.542 49.5533C92.542 73.4616 73.2206 92.7839 49.3113 92.7839C25.4029 92.7839 6.08061 73.4626 6.08061 49.5533C6.08061 25.6449 25.4019 6.3226 49.3113 6.3226Z" fill="#4E473F"/>
<path d="M49.311 56.8955C40.2455 56.913 31.1435 61.0511 25.7716 69.3989C24.7215 71.0309 24.9 73.1107 26.3863 73.958C27.9611 74.8564 29.7572 74.218 30.7258 72.7301C34.9165 66.2919 42.1165 63.086 49.3119 63.0676C56.508 63.0501 63.7072 66.257 67.8979 72.695C68.8665 74.1829 70.6617 74.8555 72.2374 73.9579C73.7245 73.1099 73.903 70.9958 72.8521 69.3639C67.4792 61.0153 58.3772 56.8781 49.3127 56.8956L49.311 56.8955Z" fill="#4E473F"/>
</svg>
