<svg width="51" height="52" viewBox="0 0 51 52" fill="none" xmlns="http://www.w3.org/2000/svg">
<path d="M49.1221 32.1233L44.831 29.4382C43.5993 28.6728 42.8503 27.3257 42.8503 25.8753C42.8503 24.4253 43.5993 23.0777 44.831 22.3128L49.1133 19.6306V19.6302C49.6223 19.3144 49.9849 18.8096 50.1217 18.2267C50.258 17.6432 50.1573 17.0301 49.8415 16.5211L44.4668 7.93011C44.151 7.42111 43.6462 7.05809 43.0632 6.92174C42.4798 6.78498 41.8662 6.88535 41.3572 7.20112L39.0565 8.64023C38.2058 9.17431 37.1911 9.38552 36.1979 9.23454C35.2046 9.08398 34.2987 8.58167 33.6441 7.8192C32.99 7.05676 32.6315 6.0848 32.6336 5.08018V2.37167C32.6328 1.7736 32.3948 1.20024 31.972 0.77689C31.5491 0.354056 30.9757 0.115658 30.3776 0.114822H20.2312C19.6331 0.115659 19.0597 0.354056 18.6368 0.77689C18.214 1.20014 17.976 1.77355 17.9752 2.37167V5.08018C17.9773 6.08478 17.6188 7.05677 16.9647 7.8192C16.3102 8.58165 15.4043 9.08389 14.4109 9.23454C13.4176 9.38553 12.403 9.17431 11.5523 8.64023L9.24198 7.20112C8.73549 6.88661 8.1244 6.78581 7.54355 6.92048C6.9622 7.05515 6.4582 7.41526 6.14203 7.92091L0.767304 16.5324C0.452791 17.0393 0.351579 17.6503 0.486667 18.2313C0.621338 18.8126 0.981023 19.3166 1.48666 19.6332L5.77732 22.3154H5.77774C7.00945 23.0808 7.7585 24.4278 7.7585 25.8783C7.7585 27.3288 7.00944 28.6759 5.77774 29.4412L1.49543 32.1234C0.986442 32.4392 0.623834 32.944 0.487064 33.5274C0.350724 34.1104 0.451514 34.724 0.767283 35.2325L6.14201 43.8235C6.45777 44.3325 6.96259 44.6955 7.54557 44.8323C8.129 44.969 8.74259 44.8682 9.25159 44.5525L11.5523 43.1163C12.403 42.5822 13.4176 42.371 14.4109 42.5219C15.4042 42.6725 16.3101 43.1748 16.9647 43.9373C17.6188 44.6997 17.9772 45.6717 17.9751 46.6763V49.3857C17.9764 49.9837 18.2144 50.5568 18.6372 50.98C19.0601 51.4029 19.6335 51.6408 20.2311 51.6417H30.3776C30.9757 51.6408 31.549 51.4024 31.9719 50.9796C32.3948 50.5564 32.6328 49.983 32.6336 49.3848V46.6763C32.6315 45.6717 32.9899 44.6997 33.644 43.9373C34.2986 43.1749 35.2045 42.6726 36.1978 42.522C37.1911 42.371 38.2058 42.5822 39.0565 43.1163L41.3668 44.5554C41.8733 44.8699 42.4844 44.9707 43.0652 44.836C43.6466 44.7013 44.1506 44.3412 44.4667 43.8356L49.8415 35.2271C50.1568 34.7198 50.2584 34.1083 50.1238 33.5265C49.9887 32.9443 49.6286 32.44 49.1221 32.1234L49.1221 32.1233ZM25.3048 35.9698C22.6285 35.9698 20.0613 34.9066 18.1689 33.0142C16.2763 31.1216 15.2132 28.5546 15.2132 25.8783C15.2132 23.202 16.2764 20.6348 18.1689 18.7424C20.0614 16.8499 22.6285 15.7868 25.3048 15.7868C27.981 15.7868 30.5482 16.8499 32.4407 18.7424C34.3332 20.6349 35.3963 23.202 35.3963 25.8783C35.3921 28.5533 34.3277 31.118 32.436 33.0096C30.5444 34.9011 27.9798 35.9656 25.3048 35.9698Z" fill="#746B5F"/>
</svg>
