<svg width="42" height="38" viewBox="0 0 42 38" fill="none" xmlns="http://www.w3.org/2000/svg">
<path d="M0.963464 12.6464V25.6443C0.964788 26.8565 1.44656 28.0188 2.30378 28.8757C3.16101 29.7329 4.32324 30.215 5.53513 30.216H10.7396V8.0752H5.53513C4.3229 8.07619 3.16067 8.55796 2.30344 9.41526C1.44654 10.2725 0.964396 11.4347 0.963379 12.6469L0.963464 12.6464Z" fill="#746B5F"/>
<path d="M25.6622 0.682861C25.1039 0.32426 24.402 0.273604 23.7984 0.548431L23.6931 0.612337L12.8499 7.24457V31.0383L23.7024 37.6877C23.7372 37.7092 23.7766 37.7301 23.8219 37.7516C24.0723 37.8622 24.3431 37.9195 24.6169 37.9198C25.1295 37.9198 25.6212 37.7172 25.9851 37.3559C26.3487 36.9947 26.5547 36.504 26.558 35.9914V2.30045C26.554 1.64384 26.2166 1.03455 25.662 0.682947L25.6622 0.682861Z" fill="#746B5F"/>
<path d="M37.8645 19.1454L41.4468 15.563C41.8587 15.1511 41.8591 14.4833 41.4472 14.071C41.0352 13.6587 40.3674 13.6587 39.9551 14.0706L36.3727 17.653L32.7904 14.0706C32.3758 13.673 31.7195 13.6796 31.3133 14.0859C30.907 14.4921 30.9004 15.1484 31.298 15.563L34.8811 19.1454L31.298 22.7277C30.8861 23.14 30.8864 23.8078 31.2984 24.2198C31.7106 24.6317 32.3784 24.6313 32.7904 24.2194L36.3728 20.6371L39.9551 24.2194C40.3674 24.629 41.0333 24.6277 41.4441 24.2168C41.855 23.8059 41.8564 23.14 41.4468 22.7278L37.8645 19.1454Z" fill="#746B5F"/>
</svg>
