<svg width="45" height="40" viewBox="0 0 45 40" fill="none" xmlns="http://www.w3.org/2000/svg">
<path d="M0.543945 13.358V26.518C0.545388 27.8383 1.07009 29.1041 2.00369 30.0373C2.93729 30.9706 4.20309 31.4953 5.52296 31.4964H10.7091V8.37891H5.52296C4.20309 8.37999 2.9373 8.90469 2.00369 9.83837C1.07007 10.7716 0.54533 12.0374 0.543945 13.3573V13.358Z" fill="#746B5F"/>
<path d="M26.3044 0.704357C25.7104 0.321743 24.9629 0.266924 24.3195 0.558669C24.2745 0.581388 24.2388 0.604828 24.1976 0.627187L13.0059 7.46781V32.3938L24.205 39.26C24.2512 39.2827 24.2858 39.3051 24.3431 39.3285C24.6078 39.4476 24.8953 39.5078 25.1856 39.5049C25.7319 39.506 26.2563 39.2903 26.6439 38.9055C27.0312 38.5208 27.2508 37.9982 27.2537 37.4523V2.42751C27.2552 1.72791 26.8965 1.07649 26.3044 0.704357Z" fill="#746B5F"/>
<path d="M34.9759 4.82672C34.3982 4.56455 33.7174 4.82095 33.4552 5.39902C33.1934 5.97673 33.4498 6.6576 34.0275 6.91941C36.5648 8.03268 38.7285 9.85127 40.2611 12.1592C41.794 14.4672 42.6315 17.1668 42.6733 19.9371C42.6318 22.707 41.7952 25.4069 40.2626 27.7149C38.7303 30.0229 36.567 31.8418 34.03 32.9555C33.7526 33.0813 33.5363 33.3121 33.4288 33.5974C33.3217 33.8823 33.3318 34.1985 33.4577 34.4762C33.7195 35.0539 34.4003 35.3103 34.9784 35.0485C37.9175 33.7524 40.4216 31.6388 42.1933 28.9598C43.965 26.2808 44.9293 23.1488 44.9715 19.9371C44.929 16.7255 43.9643 13.5935 42.1923 10.9145C40.4202 8.2354 37.9154 6.12222 34.9759 4.8269V4.82672Z" fill="#746B5F"/>
<path d="M38.3697 19.9373C38.3452 17.9719 37.7556 16.0552 36.6719 14.4155C35.5886 12.7754 34.0563 11.4819 32.2582 10.6881C31.6801 10.4263 30.9993 10.6824 30.7375 11.2604C30.4756 11.8385 30.7317 12.5194 31.3098 12.7812C33.2012 13.5735 34.7021 15.0827 35.4843 16.9781C36.2669 18.8739 36.2669 21.0023 35.4843 22.898C34.7021 24.7938 33.2013 26.3026 31.3098 27.0953C30.7443 27.3643 30.4984 28.0368 30.7569 28.6074C31.0151 29.1775 31.6826 29.4364 32.2582 29.1891C34.0566 28.395 35.5889 27.1007 36.6725 25.4606C37.7558 23.8201 38.345 21.9031 38.3696 19.9373L38.3697 19.9373Z" fill="#746B5F"/>
</svg>
