<svg width="44" height="45" viewBox="0 0 44 45" fill="none" xmlns="http://www.w3.org/2000/svg">
<path d="M20.9205 7.97726H18.2111V1.65548C18.2111 1.29957 18.0016 0.978129 17.6783 0.831743C17.355 0.683569 16.9759 0.744957 16.7086 0.981729L0.45204 15.4322C0.258509 15.6019 0.148438 15.8474 0.148438 16.1057C0.148438 16.3639 0.258509 16.6097 0.45204 16.7812L16.7086 31.2317C16.9741 31.4685 17.3551 31.5262 17.6786 31.3817C18.0034 31.2353 18.2111 30.9139 18.2111 30.5579V24.2181L18.4748 24.2235C18.688 24.2308 18.9012 24.2362 19.1144 24.2362C26.6611 24.2362 34.4675 28.2894 34.4675 35.0739C34.4675 37.572 32.71 40.731 31.0771 42.6098C30.7916 42.9367 30.7807 43.4208 31.0499 43.7622C31.2252 43.9842 31.4889 44.1033 31.7581 44.1033C31.899 44.1033 32.0435 44.0691 32.1754 44.0005C38.8425 40.516 43.4992 33.5027 43.4992 26.9435C43.4992 16.664 33.16 7.97759 20.9204 7.97759L20.9205 7.97726Z" fill="#746B5F"/>
</svg>